<?xml version="1.0" encoding="UTF-8"?>
<svg xmlns="http://www.w3.org/2000/svg" xmlns:xlink="http://www.w3.org/1999/xlink" width="375pt" height="374.999991pt" viewBox="0 0 375 374.999991" version="1.2">
<defs>
<clipPath id="clip1">
  <path d="M 107.144531 0 L 257.144531 0 L 257.144531 375 L 107.144531 375 Z M 107.144531 0 "/>
</clipPath>
</defs>
<g id="surface1">
<g clip-path="url(#clip1)" clip-rule="nonzero">
<path style=" stroke:none;fill-rule:nonzero;fill:rgb(27.449036%,70.588684%,45.878601%);fill-opacity:1;" d="M 247.351562 312.417969 C 247.351562 324.171875 247.351562 335.9375 247.351562 347.714844 C 247.226562 351.574219 241.4375 354.855469 237.269531 356.601562 C 228.910156 360.128906 219.683594 361.820312 210.714844 362.996094 C 189.332031 365.769531 166.898438 365.632812 145.644531 361.875 C 137.722656 360.503906 116.929688 356.886719 116.929688 347.335938 C 116.929688 337.957031 116.929688 328.597656 116.929688 319.226562 C 116.929688 248.976562 116.929688 178.746094 116.929688 108.484375 C 160.417969 108.484375 203.871094 108.484375 247.351562 108.484375 C 247.351562 176.460938 247.351562 244.429688 247.351562 312.417969 Z M 144.875 63.683594 L 165.644531 63.683594 L 165.644531 77.832031 L 144.875 77.832031 Z M 195.941406 63.683594 L 216.714844 63.683594 L 216.714844 77.832031 L 195.941406 77.832031 Z M 252.226562 98.738281 C 245.175781 98.738281 238.101562 98.738281 231.042969 98.738281 L 231.042969 0.285156 L 130.613281 0.285156 L 130.613281 98.738281 C 124.421875 98.738281 118.242188 98.738281 112.054688 98.738281 C 109.386719 98.738281 107.167969 100.960938 107.167969 103.601562 C 107.167969 173.210938 107.167969 242.808594 107.167969 312.417969 C 107.167969 323.585938 107.167969 334.785156 107.167969 345.976562 C 107.167969 357.355469 115.808594 362.898438 125.578125 366.710938 C 144.222656 373.929688 166.027344 374.730469 185.769531 374.464844 C 204.933594 374.222656 225.828125 372.601562 243.457031 364.460938 C 250.332031 361.300781 256.867188 355.789062 257.117188 347.714844 C 257.117188 278.117188 257.117188 208.511719 257.117188 138.914062 C 257.117188 127.144531 257.117188 115.371094 257.117188 103.601562 C 257.117188 100.960938 254.902344 98.738281 252.226562 98.738281 "/>
</g>
<path style=" stroke:none;fill-rule:nonzero;fill:rgb(27.449036%,70.588684%,45.878601%);fill-opacity:1;" d="M 156.113281 225.136719 L 156.113281 277.5 L 180.46875 287.191406 L 180.46875 306.742188 C 177.277344 307.960938 175 311.054688 175 314.683594 C 175 319.359375 178.804688 323.183594 183.507812 323.183594 C 188.199219 323.183594 192.003906 319.359375 192.003906 314.683594 C 192.003906 310.964844 189.59375 307.792969 186.269531 306.640625 L 186.269531 287.269531 L 210.753906 277.6875 L 210.855469 277.6875 L 210.855469 225.429688 L 221.597656 225.429688 L 221.597656 198.5 L 194.65625 198.5 L 194.65625 225.429688 L 205.039062 225.429688 L 205.039062 273.683594 L 186.269531 281.046875 L 186.269531 187.039062 L 196.902344 187.039062 L 183.433594 160.101562 L 169.945312 187.039062 L 180.46875 187.039062 L 180.46875 280.933594 L 161.734375 273.460938 L 161.734375 224.898438 C 167.554688 223.410156 171.84375 218.136719 171.84375 211.871094 C 171.84375 204.417969 165.808594 198.378906 158.382812 198.378906 C 150.941406 198.378906 144.90625 204.417969 144.90625 211.871094 C 144.90625 218.546875 149.75 224.058594 156.113281 225.136719 "/>
</g>
</svg>
